<svg width="52" height="50" viewBox="0 0 52 50" fill="none" xmlns="http://www.w3.org/2000/svg">
    <ellipse opacity="0.28" cx="25.8853" cy="25" rx="25.8853" ry="25" fill="white" />
    <path d="M25.8872 20.8978C23.5366 20.8978 21.6407 22.7293 21.6407 25C21.6407 27.2707 23.5366 29.1022 25.8872 29.1022C28.2378 29.1022 30.1337 27.2707 30.1337 25C30.1337 22.7293 28.2378 20.8978 25.8872 20.8978ZM25.8872 27.667C24.3682 27.667 23.1264 26.4709 23.1264 25C23.1264 23.5291 24.3645 22.333 25.8872 22.333C27.4099 22.333 28.648 23.5291 28.648 25C28.648 26.4709 27.4062 27.667 25.8872 27.667ZM31.2979 20.73C31.2979 21.262 30.8544 21.6868 30.3074 21.6868C29.7568 21.6868 29.3169 21.2584 29.3169 20.73C29.3169 20.2016 29.7604 19.7732 30.3074 19.7732C30.8544 19.7732 31.2979 20.2016 31.2979 20.73ZM34.1105 21.7011C34.0476 20.4194 33.7446 19.2841 32.7726 18.3487C31.8042 17.4133 30.629 17.1205 29.3022 17.0562C27.9347 16.9813 23.836 16.9813 22.4686 17.0562C21.1454 17.1169 19.9702 17.4097 18.9982 18.3451C18.0261 19.2805 17.7268 20.4158 17.6603 21.6975C17.5826 23.0185 17.5826 26.9779 17.6603 28.2989C17.7231 29.5806 18.0261 30.7159 18.9982 31.6513C19.9702 32.5867 21.1417 32.8795 22.4686 32.9438C23.836 33.0187 27.9347 33.0187 29.3022 32.9438C30.629 32.8831 31.8042 32.5903 32.7726 31.6513C33.7409 30.7159 34.0439 29.5806 34.1105 28.2989C34.1881 26.9779 34.1881 23.0221 34.1105 21.7011ZM32.3438 29.7163C32.0556 30.416 31.4975 30.9551 30.7694 31.2372C29.6791 31.6549 27.092 31.5585 25.8872 31.5585C24.6824 31.5585 22.0916 31.6513 21.005 31.2372C20.2806 30.9587 19.7225 30.4196 19.4306 29.7163C18.9982 28.6631 19.0979 26.1639 19.0979 25C19.0979 23.8361 19.0019 21.3334 19.4306 20.2837C19.7188 19.584 20.2769 19.0449 21.005 18.7628C22.0953 18.3451 24.6824 18.4415 25.8872 18.4415C27.092 18.4415 29.6828 18.3487 30.7694 18.7628C31.4938 19.0413 32.0519 19.5804 32.3438 20.2837C32.7763 21.3369 32.6765 23.8361 32.6765 25C32.6765 26.1639 32.7763 28.6666 32.3438 29.7163Z" fill="white" />
</svg>
    