<svg width="23" height="24" viewBox="0 0 491 374" fill="none" xmlns="http://www.w3.org/2000/svg">
    <path d="M0 63.05V311.25C0 345.45 27.9 373.35 62.1 373.35H262.7C296.9 373.35 324.8 345.45 324.8 311.25V271.05C324.8 264.25 319.3 258.75 312.5 258.75C305.7 258.75 300.2 264.25 300.2 271.05V311.25C300.2 331.95 283.3 348.85 262.6 348.85H62.1C41.4 348.85 24.5 331.95 24.5 311.25V63.05C24.5 42.35 41.4 25.45 62.1 25.45H262.7C283.4 25.45 300.3 42.35 300.3 63.05V103.25C300.3 110.05 305.8 115.55 312.6 115.55C319.4 115.55 324.9 110.05 324.9 103.25V63.05C324.9 28.85 297 0.949997 262.8 0.949997H62.1C27.9 0.949997 0 28.75 0 63.05Z" fill="white" />
    <path d="M385.4 279.65C387.8 282.05 390.9 283.25 394.1 283.25C397.3 283.25 400.4 282.05 402.8 279.65L486.7 195.75C491.5 190.95 491.5 183.25 486.7 178.45L402.8 94.55C398 89.75 390.3 89.75 385.5 94.55C380.7 99.35 380.7 107.05 385.5 111.85L448.5 174.85H218.6C211.8 174.85 206.3 180.35 206.3 187.15C206.3 193.95 211.8 199.45 218.6 199.45H448.4L385.4 262.45C380.6 267.15 380.6 274.95 385.4 279.65Z" fill="white" />
</svg>
    