<svg width="53" height="50" viewBox="0 0 53 50" fill="none" xmlns="http://www.w3.org/2000/svg">
    <ellipse opacity="0.28" cx="26.418" cy="25" rx="25.8853" ry="25" fill="white" />
    <path fill-rule="evenodd" clip-rule="evenodd" d="M26.4368 21.6591L26.3999 21.0075C26.2892 19.3187 27.2609 17.7761 28.7985 17.1777C29.3642 16.9649 30.3236 16.9383 30.951 17.1245C31.1969 17.2043 31.6644 17.4702 31.9964 17.7096L32.5992 18.1485L33.2633 17.9224C33.6324 17.8027 34.1244 17.6032 34.3457 17.4702C34.5549 17.3506 34.7393 17.284 34.7393 17.324C34.7393 17.55 34.2843 18.3213 33.903 18.7468C33.3864 19.3453 33.534 19.3985 34.5795 18.9995C35.2068 18.7734 35.219 18.7734 35.0961 19.0261C35.0222 19.1591 34.6409 19.6245 34.235 20.05C33.5462 20.7815 33.5094 20.8612 33.5094 21.4729C33.5094 22.4171 33.0912 24.3852 32.6729 25.4623C31.898 27.4836 30.2375 29.5714 28.577 30.6219C26.24 32.0981 23.1281 32.4704 20.5082 31.606C19.6349 31.3134 18.1343 30.5687 18.1343 30.4358C18.1343 30.3959 18.5894 30.3427 19.1429 30.3294C20.2991 30.3028 21.4553 29.957 22.4393 29.3453L23.1035 28.9198L22.3409 28.6406C21.2585 28.2416 20.2868 27.324 20.0408 26.4597C19.967 26.1804 19.9916 26.1671 20.6804 26.1671L21.3938 26.1538L20.7911 25.848C20.0777 25.4623 19.4258 24.8107 19.106 24.1458C18.8722 23.6671 18.5771 22.457 18.6632 22.3639C18.6878 22.324 18.9461 22.4038 19.2413 22.5102C20.09 22.8426 20.2007 22.7628 19.7087 22.2043C18.7862 21.1937 18.5033 19.691 18.9461 18.2681L19.1552 17.6298L19.967 18.4942C21.6275 20.2362 23.5832 21.2735 25.8218 21.5793L26.4368 21.6591Z" fill="white" />
</svg>
    