<svg width="100" height="15" viewBox="0 0 100 15" fill="none" xmlns="http://www.w3.org/2000/svg">
    <path d="M4.67989 1.98484C4.26563 1.98484 3.93808 2.10061 3.69723 2.33216C3.45638 2.55407 3.28296 2.90622 3.17699 3.38861L3.04693 3.99644H5.27238L5.04117 5.13972H2.85907L1.54403 11.6666H0.156738L1.47178 5.13972H0.156738L0.373503 3.99644H1.70299L1.8475 3.27284C2.00165 2.49135 2.31475 1.89318 2.78681 1.47832C3.26851 1.05381 3.89954 0.841553 4.67989 0.841553C4.99781 0.841553 5.29647 0.884969 5.57585 0.9718C5.86487 1.04898 6.1009 1.16476 6.28395 1.31913L5.70591 2.34663C5.43616 2.10544 5.09415 1.98484 4.67989 1.98484Z" fill="white" />
    <path d="M8.53435 11.7534C7.8118 11.7534 7.18078 11.6183 6.64127 11.3482C6.10177 11.0684 5.68269 10.6776 5.38404 10.176C5.08538 9.67426 4.93606 9.09538 4.93606 8.43932C4.93606 7.58065 5.12874 6.80882 5.5141 6.12381C5.89946 5.43881 6.43414 4.90334 7.11815 4.51743C7.80217 4.12186 8.57289 3.92408 9.43031 3.92408C10.1529 3.92408 10.7839 4.05915 11.3234 4.32929C11.8629 4.59943 12.2772 4.98535 12.5662 5.48705C12.8648 5.97909 13.0141 6.55797 13.0141 7.22368C13.0141 8.08235 12.8215 8.85901 12.4361 9.55366C12.0508 10.2387 11.5161 10.779 10.8321 11.1745C10.1577 11.5604 9.39177 11.7534 8.53435 11.7534ZM8.62106 10.5378C9.18946 10.5378 9.70006 10.4027 10.1529 10.1325C10.6153 9.85275 10.9717 9.46683 11.2222 8.97478C11.4823 8.48274 11.6124 7.92315 11.6124 7.29604C11.6124 6.61103 11.4149 6.08039 11.0199 5.70412C10.6249 5.32785 10.0613 5.13972 9.32915 5.13972C8.76075 5.13972 8.25015 5.27961 7.79735 5.5594C7.34455 5.82955 6.9881 6.21064 6.72798 6.70269C6.46786 7.19473 6.3378 7.75432 6.3378 8.38143C6.3378 9.05679 6.5353 9.58743 6.93029 9.97335C7.33492 10.3496 7.89851 10.5378 8.62106 10.5378Z" fill="white" />
    <path d="M16.7536 5.13972C17.0908 4.71521 17.505 4.40647 17.9963 4.21351C18.4877 4.02056 19.085 3.92408 19.7883 3.92408L19.5282 5.26997C19.4414 5.26032 19.321 5.25549 19.1669 5.25549C17.5773 5.25549 16.6139 6.11416 16.2767 7.8315L15.5108 11.6666H14.1235L15.6408 3.99644H16.9703L16.7536 5.13972Z" fill="white" />
    <path d="M25.2755 8.26566V8.35249C25.2755 9.06644 25.4778 9.61155 25.8824 9.98782C26.287 10.3544 26.894 10.5378 27.7032 10.5378C28.1753 10.5378 28.6184 10.4606 29.0327 10.3062C29.447 10.1422 29.7938 9.92511 30.0732 9.65496L30.6657 10.6535C30.2899 11.0009 29.8323 11.271 29.2928 11.464C28.7533 11.6569 28.1849 11.7534 27.5876 11.7534C26.8362 11.7534 26.1859 11.6183 25.6367 11.3482C25.0876 11.078 24.6637 10.6921 24.365 10.1904C24.0664 9.68873 23.9171 9.10021 23.9171 8.42485C23.9171 7.56618 24.1001 6.79434 24.4662 6.10934C24.8419 5.42433 25.3573 4.88887 26.0125 4.50295C26.6772 4.11703 27.419 3.92408 28.2379 3.92408C29.2784 3.92408 30.1069 4.22316 30.7235 4.82134C31.3497 5.40986 31.6628 6.21547 31.6628 7.23815C31.6628 7.54688 31.6291 7.88939 31.5616 8.26566H25.2755ZM28.1801 5.08183C27.4961 5.08183 26.9084 5.27479 26.4171 5.66071C25.9258 6.04663 25.5934 6.57726 25.42 7.25262H30.3622C30.4007 6.56762 30.2177 6.03698 29.8131 5.66071C29.4181 5.27479 28.8737 5.08183 28.1801 5.08183Z" fill="white" />
    <path d="M43.6618 3.92408C44.5289 3.92408 45.2033 4.14598 45.685 4.58978C46.1763 5.02394 46.422 5.64624 46.422 6.45667C46.422 6.67857 46.3883 6.98248 46.3208 7.3684L45.4682 11.6666H44.0809L44.9335 7.3684C44.9817 7.09825 45.0058 6.87635 45.0058 6.70269C45.0058 6.20099 44.8661 5.8199 44.5867 5.5594C44.3073 5.29891 43.8834 5.16866 43.315 5.16866C42.6021 5.16866 42.0144 5.37127 41.552 5.77648C41.0992 6.17205 40.7909 6.77022 40.6271 7.571L39.8034 11.6666H38.4161L39.2832 7.3684C39.3314 7.1079 39.3554 6.89082 39.3554 6.71716C39.3554 6.21547 39.2109 5.83437 38.9219 5.57388C38.6425 5.30373 38.2186 5.16866 37.6502 5.16866C36.9373 5.16866 36.3496 5.37127 35.8872 5.77648C35.4344 6.1817 35.1261 6.79434 34.9623 7.61442L34.1531 11.6666H32.7658L34.2832 3.99644H35.6126L35.4248 4.95158C36.0992 4.26658 36.9855 3.92408 38.0838 3.92408C38.6811 3.92408 39.1917 4.03985 39.6156 4.2714C40.0395 4.50295 40.3477 4.84063 40.5404 5.28444C41.3208 4.37753 42.3612 3.92408 43.6618 3.92408Z" fill="white" />
    <path d="M53.3966 3.92408C54.0517 3.92408 54.6346 4.05915 55.1452 4.32929C55.6558 4.58978 56.0556 4.97088 56.3446 5.47257C56.6336 5.96462 56.7781 6.54832 56.7781 7.22368C56.7781 8.09199 56.5903 8.86866 56.2145 9.55366C55.8388 10.2387 55.3186 10.779 54.6538 11.1745C53.9987 11.5604 53.2617 11.7534 52.4428 11.7534C51.7877 11.7534 51.2241 11.6376 50.7521 11.4061C50.28 11.1649 49.9187 10.8175 49.6682 10.3641L48.859 14.4741H47.4717L49.5526 3.99644H50.8821L50.6943 4.95158C51.4072 4.26658 52.308 3.92408 53.3966 3.92408ZM52.385 10.5378C52.9534 10.5378 53.464 10.4027 53.9168 10.1325C54.3696 9.85275 54.7261 9.46683 54.9862 8.97478C55.2463 8.48274 55.3764 7.92315 55.3764 7.29604C55.3764 6.61103 55.1789 6.08039 54.7839 5.70412C54.3889 5.32785 53.8253 5.13972 53.0931 5.13972C52.5247 5.13972 52.0093 5.27961 51.5469 5.5594C51.0941 5.82955 50.7376 6.21064 50.4775 6.70269C50.227 7.19473 50.1018 7.75432 50.1018 8.38143C50.1018 9.05679 50.2993 9.58743 50.6943 9.97335C51.0989 10.3496 51.6625 10.5378 52.385 10.5378Z" fill="white" />
    <path d="M60.0244 0.928384H61.4117L59.2729 11.6666H57.8857L60.0244 0.928384Z" fill="white" />
    <path d="M65.5056 11.7534C64.7831 11.7534 64.152 11.6183 63.6125 11.3482C63.073 11.0684 62.6539 10.6776 62.3553 10.176C62.0566 9.67426 61.9073 9.09538 61.9073 8.43932C61.9073 7.58065 62.1 6.80882 62.4854 6.12381C62.8707 5.43881 63.4054 4.90334 64.0894 4.51743C64.7734 4.12186 65.5441 3.92408 66.4016 3.92408C67.1241 3.92408 67.7551 4.05915 68.2946 4.32929C68.8341 4.59943 69.2484 4.98535 69.5374 5.48705C69.8361 5.97909 69.9854 6.55797 69.9854 7.22368C69.9854 8.08235 69.7927 8.85901 69.4074 9.55366C69.022 10.2387 68.4873 10.779 67.8033 11.1745C67.1289 11.5604 66.363 11.7534 65.5056 11.7534ZM65.5923 10.5378C66.1607 10.5378 66.6713 10.4027 67.1241 10.1325C67.5865 9.85275 67.943 9.46683 68.1935 8.97478C68.4536 8.48274 68.5837 7.92315 68.5837 7.29604C68.5837 6.61103 68.3862 6.08039 67.9912 5.70412C67.5962 5.32785 67.0326 5.13972 66.3004 5.13972C65.732 5.13972 65.2214 5.27961 64.7686 5.5594C64.3158 5.82955 63.9594 6.21064 63.6992 6.70269C63.4391 7.19473 63.3091 7.75432 63.3091 8.38143C63.3091 9.05679 63.5066 9.58743 63.9015 9.97335C64.3062 10.3496 64.8698 10.5378 65.5923 10.5378Z" fill="white" />
    <path d="M79.1779 3.99644L73.7444 12.5059C73.253 13.2778 72.7858 13.8132 72.3426 14.1123C71.8994 14.4114 71.3744 14.561 70.7674 14.561C70.3917 14.561 70.0256 14.4982 69.6692 14.3728C69.3127 14.257 69.0381 14.093 68.8455 13.8808L69.568 12.8533C69.9148 13.2006 70.3484 13.3743 70.8686 13.3743C71.1962 13.3743 71.4852 13.2874 71.7357 13.1138C71.9862 12.9401 72.2463 12.6458 72.516 12.231L72.9062 11.6231L71.0565 3.99644H72.4438L73.9178 10.1325L77.7762 3.99644H79.1779Z" fill="white" />
    <path d="M80.0875 8.26566V8.35249C80.0875 9.06644 80.2898 9.61155 80.6945 9.98782C81.0991 10.3544 81.706 10.5378 82.5153 10.5378C82.9874 10.5378 83.4305 10.4606 83.8448 10.3062C84.259 10.1422 84.6059 9.92511 84.8853 9.65496L85.4777 10.6535C85.102 11.0009 84.6444 11.271 84.1049 11.464C83.5654 11.6569 82.997 11.7534 82.3997 11.7534C81.6482 11.7534 80.9979 11.6183 80.4488 11.3482C79.8997 11.078 79.4758 10.6921 79.1771 10.1904C78.8785 9.68873 78.7291 9.10021 78.7291 8.42485C78.7291 7.56618 78.9122 6.79434 79.2783 6.10934C79.654 5.42433 80.1694 4.88887 80.8245 4.50295C81.4893 4.11703 82.2311 3.92408 83.05 3.92408C84.0905 3.92408 84.919 4.22316 85.5356 4.82134C86.1618 5.40986 86.4749 6.21547 86.4749 7.23815C86.4749 7.54688 86.4411 7.88939 86.3737 8.26566H80.0875ZM82.9922 5.08183C82.3082 5.08183 81.7205 5.27479 81.2292 5.66071C80.7378 6.04663 80.4055 6.57726 80.232 7.25262H85.1743C85.2128 6.56762 85.0298 6.03698 84.6251 5.66071C84.2301 5.27479 83.6858 5.08183 82.9922 5.08183Z" fill="white" />
    <path d="M90.208 5.13972C90.5451 4.71521 90.9594 4.40647 91.4507 4.21351C91.9421 4.02056 92.5394 3.92408 93.2427 3.92408L92.9825 5.26997C92.8958 5.26032 92.7754 5.25549 92.6213 5.25549C91.0317 5.25549 90.0683 6.11416 89.7311 7.8315L88.9652 11.6666H87.5779L89.0952 3.99644H90.4247L90.208 5.13972Z" fill="white" />
    <path d="M95.876 11.7534C95.2402 11.7534 94.6332 11.6714 94.0552 11.5074C93.4868 11.3434 93.0436 11.1311 92.7257 10.8706L93.3471 9.77074C93.6457 10.0119 94.0311 10.2049 94.5032 10.3496C94.9849 10.4847 95.4858 10.5522 96.0061 10.5522C96.6612 10.5522 97.1573 10.4557 97.4945 10.2628C97.8413 10.0602 98.0147 9.78039 98.0147 9.42341C98.0147 9.13397 97.8751 8.92654 97.5957 8.80112C97.3259 8.6757 96.902 8.55027 96.324 8.42485C95.7845 8.30907 95.3413 8.1933 94.9945 8.07752C94.6573 7.9521 94.3683 7.75914 94.1274 7.49864C93.8866 7.2285 93.7662 6.8667 93.7662 6.41325C93.7662 5.91156 93.9059 5.47257 94.1852 5.0963C94.4743 4.72003 94.8789 4.43059 95.3991 4.22799C95.929 4.02538 96.5407 3.92408 97.2344 3.92408C97.745 3.92408 98.2411 3.98679 98.7229 4.11221C99.2046 4.23763 99.5995 4.40647 99.9078 4.61873L99.3587 5.7186C99.06 5.51599 98.7132 5.36645 98.3182 5.26997C97.9232 5.16384 97.5186 5.11077 97.1043 5.11077C96.4781 5.11077 95.9964 5.2169 95.6592 5.42916C95.3221 5.63176 95.1535 5.90673 95.1535 6.25406C95.1535 6.56279 95.2932 6.7847 95.5725 6.91977C95.8519 7.04519 96.2855 7.17061 96.8731 7.29604C97.403 7.41181 97.8365 7.52759 98.1737 7.64336C98.5109 7.75914 98.7951 7.94728 99.0263 8.20777C99.2672 8.46826 99.3876 8.82041 99.3876 9.26422C99.3876 10.0457 99.0649 10.6584 98.4194 11.1022C97.7835 11.5363 96.9358 11.7534 95.876 11.7534Z" fill="white" />
</svg>
    